<svg width="65" height="109" viewBox="0 0 65 109" fill="none" xmlns="http://www.w3.org/2000/svg">
<path d="M26.99 76.3509C25.5584 76.3509 24.1854 76.9196 23.1731 77.9319C22.1607 78.9442 21.592 80.3172 21.592 81.7489C21.592 83.1805 22.1607 84.5535 23.1731 85.5658C24.1854 86.5782 25.5584 87.1469 26.99 87.1469H37.786C39.2177 87.1469 40.5907 86.5782 41.603 85.5658C42.6153 84.5535 43.184 83.1805 43.184 81.7489C43.184 80.3172 42.6153 78.9442 41.603 77.9319C40.5907 76.9196 39.2177 76.3509 37.786 76.3509H26.99ZM16.194 0.778809C11.8991 0.778809 7.78008 2.48496 4.74312 5.52193C1.70615 8.55889 0 12.6779 0 16.9728V92.5449C0 96.8398 1.70615 100.959 4.74312 103.996C7.78008 107.033 11.8991 108.739 16.194 108.739H48.582C52.877 108.739 56.996 107.033 60.0329 103.996C63.0699 100.959 64.7761 96.8398 64.7761 92.5449V16.9728C64.7761 12.6779 63.0699 8.55889 60.0329 5.52193C56.996 2.48496 52.877 0.778809 48.582 0.778809H16.194ZM10.796 16.9728C10.796 15.5412 11.3647 14.1682 12.377 13.1559C13.3894 12.1435 14.7624 11.5748 16.194 11.5748H48.582C50.0137 11.5748 51.3867 12.1435 52.399 13.1559C53.4113 14.1682 53.98 15.5412 53.98 16.9728V92.5449C53.98 93.9765 53.4113 95.3495 52.399 96.3619C51.3867 97.3742 50.0137 97.9429 48.582 97.9429H16.194C14.7624 97.9429 13.3894 97.3742 12.377 96.3619C11.3647 95.3495 10.796 93.9765 10.796 92.5449V16.9728Z" fill="#D85B2F"/>
</svg>
