<svg width="120" height="108" viewBox="0 0 120 108" fill="none" xmlns="http://www.w3.org/2000/svg">
<path d="M95.9645 71.9734H83.969V83.969H95.9645M95.9645 47.9823H83.969V59.9778H95.9645M107.96 95.9645H59.9778V83.969H71.9734V71.9734H59.9778V59.9778H71.9734V47.9823H59.9778V35.9867H107.96M47.9823 23.9911H35.9867V11.9956H47.9823M47.9823 47.9823H35.9867V35.9867H47.9823M47.9823 71.9734H35.9867V59.9778H47.9823M47.9823 95.9645H35.9867V83.969H47.9823M23.9911 23.9911H11.9956V11.9956H23.9911M23.9911 47.9823H11.9956V35.9867H23.9911M23.9911 71.9734H11.9956V59.9778H23.9911M23.9911 95.9645H11.9956V83.969H23.9911M59.9778 23.9911V0H0V107.96H119.956V23.9911H59.9778Z" fill="#FFB856"/>
</svg>
