<svg width="120" height="108" viewBox="0 0 120 108" fill="none" xmlns="http://www.w3.org/2000/svg">
<path d="M0 11.9956C0 8.81414 1.26381 5.76302 3.51342 3.51342C5.76302 1.26381 8.81414 0 11.9956 0H107.96C111.142 0 114.193 1.26381 116.442 3.51342C118.692 5.76302 119.956 8.81414 119.956 11.9956V77.9712C119.956 81.1526 118.692 84.2037 116.442 86.4533C114.193 88.7029 111.142 89.9667 107.96 89.9667H11.9956C8.81414 89.9667 5.76302 88.7029 3.51342 86.4533C1.26381 84.2037 0 81.1526 0 77.9712V11.9956ZM107.96 11.9956H11.9956V77.9712H107.96V11.9956ZM119.956 101.962C119.956 103.553 119.324 105.079 118.199 106.203C117.074 107.328 115.549 107.96 113.958 107.96H5.99778C4.40707 107.96 2.88151 107.328 1.75671 106.203C0.631907 105.079 0 103.553 0 101.962C0 100.372 0.631907 98.846 1.75671 97.7212C2.88151 96.5964 4.40707 95.9645 5.99778 95.9645H113.958C115.549 95.9645 117.074 96.5964 118.199 97.7212C119.324 98.846 119.956 100.372 119.956 101.962Z" fill="#46FFFF"/>
</svg>
